<?xml version="1.0"?>
<svg xmlns="http://www.w3.org/2000/svg" version="1.1" viewBox="55 117 340 268">
  <!-- CHANGE COLOR HERE: Replace the 'fill' value below with any color you want -->
  <!-- Examples: #DC2626 (red), #000000 (black), #FFFFFF (white), #3B82F6 (blue) -->
  <path fill="#000000 " d="M282.346069,246.325165 C285.618988,244.708252 288.568634,242.186172 291.572906,242.119324 C296.631500,242.006760 298.182373,239.010101 300.249084,235.449402 C311.932556,215.320145 323.731506,195.256332 335.708160,175.300491 C337.585022,172.173294 337.919006,170.226700 335.559937,167.036728 C332.553864,162.971786 330.676941,158.071869 327.921692,152.779755 C311.330505,152.779755 293.855804,152.627670 276.391052,152.974655 C274.238678,153.017441 271.473389,155.274323 270.127686,157.270645 C263.437836,167.194763 257.019562,177.309784 250.847733,187.563461 C250.207870,188.626541 251.312347,191.553223 252.486267,192.760971 C259.563995,200.042679 260.970032,208.764465 257.793335,217.737534 C252.983093,231.324600 237.600388,235.475372 225.082489,227.242783 C215.868759,221.183212 211.225998,209.214523 214.403992,198.776489 C217.087448,189.962738 223.345886,185.152603 232.381866,183.523651 C234.141724,183.206390 236.186874,181.790939 237.170090,180.277603 C243.965088,169.818817 250.410645,159.133423 257.175476,148.654480 C262.140472,140.963531 269.393066,137.179443 278.585144,137.172409 C293.917542,137.160675 309.252563,136.972855 324.580536,137.222946 C328.486115,137.286652 330.509033,136.099442 332.218109,132.643250 C342.009460,112.842491 362.992340,111.244606 375.373871,117.162292 C387.801483,123.102005 394.799500,137.108627 392.782318,152.199295 C390.872406,166.487488 380.686096,177.518173 367.099030,179.840836 C364.990753,180.201263 362.521484,180.664551 360.676483,179.930603 C355.386871,177.826340 353.556793,180.846283 351.282990,184.736923 C339.370880,205.119553 327.283722,225.401352 315.059265,245.598251 C313.452209,248.253357 313.160400,250.047180 314.873260,252.733688 C319.384674,259.809570 320.045776,267.374542 316.534515,275.118134 C313.557495,281.683624 308.559113,285.850861 301.297516,286.410583 C296.947479,286.745880 294.484161,288.671356 292.472290,292.413177 C279.803131,315.975952 266.792053,339.355652 254.217392,362.968140 C246.352524,377.736664 233.746780,384.164185 219.418427,379.927124 C211.924850,377.711182 207.099228,372.486969 203.197662,365.987823 C177.700806,323.515625 152.114609,281.097076 126.576096,238.649872 C103.698242,200.624939 80.843033,162.586395 57.985611,124.549164 C57.391121,123.559860 56.887066,122.516212 55.971539,120.809448 C57.971912,120.646698 59.527412,120.415489 61.083782,120.409470 C79.749123,120.337242 98.421318,120.583969 117.077507,120.144142 C128.329483,119.878868 136.145187,124.711067 141.841187,133.925995 C150.935181,148.638168 160.075607,163.321594 169.165863,178.036057 C189.528503,210.997131 209.800049,244.014954 230.321426,276.876831 C232.709000,280.700195 232.742142,283.491608 230.393250,287.192261 C226.667068,293.062897 223.466461,299.267090 219.486557,306.316650 C216.807159,302.116272 214.586288,298.744049 212.473160,295.305603 C183.317673,247.864426 154.162430,200.423080 125.063080,152.947464 C122.949074,149.498459 120.350296,147.663239 116.136108,147.906387 C111.533783,148.171951 106.904289,147.966751 101.215294,147.966751 C105.017082,154.367538 108.346230,160.004318 111.705368,165.623184 C144.717361,220.842575 177.737625,276.057007 210.742661,331.280548 C212.958862,334.988678 214.814453,338.938599 217.283234,342.464111 C222.883286,350.461182 233.469742,350.406189 238.498520,342.066437 C251.368835,320.722229 263.938232,299.195679 276.461273,277.645203 C277.198425,276.376648 276.897491,274.094452 276.340240,272.550812 C272.755066,262.619263 274.394592,253.939392 282.346069,246.325165 M351.655823,152.600327 C355.444183,157.547195 359.342743,159.058289 364.462433,157.572723 C369.130066,156.218338 371.731018,153.065567 372.061676,148.280777 C372.401947,143.356567 370.147491,139.678268 365.879547,137.273697 C361.535370,134.826157 357.464264,135.845001 353.925476,138.830414 C349.694672,142.399582 349.466644,147.032196 351.655823,152.600327 M237.170151,196.841309 C232.009262,196.195450 228.356140,198.237305 226.679916,203.172470 C224.934967,208.310013 227.140823,213.882980 231.771225,216.531128 C236.016205,218.958832 240.101166,218.581100 243.722214,215.298569 C249.812073,209.778015 246.843430,200.377945 237.170151,196.841309 M305.396240,265.256287 C305.344421,260.629822 303.338654,256.825073 298.889221,255.805206 C296.451141,255.246384 292.883179,256.248383 290.896179,257.864197 C287.764923,260.410431 287.025513,264.317474 289.014709,268.257751 C290.835876,271.865204 293.811035,273.936859 297.811066,273.502594 C302.076874,273.039459 304.507324,270.203674 305.396240,265.256287 z"/>
</svg>
