<?xml version="1.0"?>
<svg xmlns="http://www.w3.org/2000/svg" xmlns:xlink="http://www.w3.org/1999/xlink" version="1.1" id="Layer_1" x="0px" y="0px" width="100%" viewBox="0 0 1390 526" enable-background="new 0 0 1390 526" xml:space="preserve" style="background-color:transparent;">
<path fill="#FEFEFE" opacity="1.000000" stroke="none" d=" M964.000000,527.000000   C642.708496,527.000000 321.916992,527.000000 1.062734,527.000000   C1.062734,351.731354 1.062734,176.462692 1.062734,1.097017   C464.333313,1.097017 927.666687,1.097017 1390.971924,1.097017   C1390.971924,176.416473 1390.971924,351.708252 1390.971924,527.000000   C1248.795898,527.000000 1106.647949,527.000000 964.000000,527.000000  M282.047363,246.523895   C274.394592,253.939392 272.755066,262.619263 276.340240,272.550812   C276.897491,274.094452 277.198425,276.376648 276.461273,277.645203   C263.938232,299.195679 251.368835,320.722229 238.498520,342.066437   C233.469742,350.406189 222.883286,350.461182 217.283234,342.464111   C214.814453,338.938599 212.958862,334.988678 210.742661,331.280548   C177.737625,276.057007 144.717361,220.842575 111.705368,165.623184   C108.346230,160.004318 105.017082,154.367538 101.215294,147.966751   C106.904289,147.966751 111.533783,148.171951 116.136108,147.906387   C120.350296,147.663239 122.949074,149.498459 125.063080,152.947464   C154.162430,200.423080 183.317673,247.864426 212.473160,295.305603   C214.586288,298.744049 216.807159,302.116272 219.486557,306.316650   C223.466461,299.267090 226.667068,293.062897 230.393250,287.192261   C232.742142,283.491608 232.709000,280.700195 230.321426,276.876831   C209.800049,244.014954 189.528503,210.997131 169.165863,178.036057   C160.075607,163.321594 150.935181,148.638168 141.841187,133.925995   C136.145187,124.711067 128.329483,119.878868 117.077507,120.144142   C98.421318,120.583969 79.749123,120.337242 61.083782,120.409470   C59.527412,120.415489 57.971912,120.646698 55.971539,120.809448   C56.887066,122.516212 57.391121,123.559860 57.985611,124.549164   C80.843033,162.586395 103.698242,200.624939 126.576096,238.649872   C152.114609,281.097076 177.700806,323.515625 203.197662,365.987823   C207.099228,372.486969 211.924850,377.711182 219.418427,379.927124   C233.746780,384.164185 246.352524,377.736664 254.217392,362.968140   C266.792053,339.355652 279.803131,315.975952 292.472290,292.413177   C294.484161,288.671356 296.947479,286.745880 301.297516,286.410583   C308.559113,285.850861 313.557495,281.683624 316.534515,275.118134   C320.045776,267.374542 319.384674,259.809570 314.873260,252.733688   C313.160400,250.047180 313.452209,248.253357 315.059265,245.598251   C327.283722,225.401352 339.370880,205.119553 351.282990,184.736923   C353.556793,180.846283 355.386871,177.826340 360.676483,179.930603   C362.521484,180.664551 364.990753,180.201263 367.099030,179.840836   C380.686096,177.518173 390.872406,166.487488 392.782318,152.199295   C394.799500,137.108627 387.801483,123.102005 375.373871,117.162292   C362.992340,111.244606 342.009460,112.842491 332.218109,132.643250   C330.509033,136.099442 328.486115,137.286652 324.580536,137.222946   C309.252563,136.972855 293.917542,137.160675 278.585144,137.172409   C269.393066,137.179443 262.140472,140.963531 257.175476,148.654480   C250.410645,159.133423 243.965088,169.818817 237.170090,180.277603   C236.186874,181.790939 234.141724,183.206390 232.381866,183.523651   C223.345886,185.152603 217.087448,189.962738 214.403992,198.776489   C211.225998,209.214523 215.868759,221.183212 225.082489,227.242783   C237.600388,235.475372 252.983093,231.324600 257.793335,217.737534   C260.970032,208.764465 259.563995,200.042679 252.486267,192.760971   C251.312347,191.553223 250.207870,188.626541 250.847733,187.563461   C257.019562,177.309784 263.437836,167.194763 270.127686,157.270645   C271.473389,155.274323 274.238678,153.017441 276.391052,152.974655   C293.855804,152.627670 311.330505,152.779755 327.921692,152.779755   C330.676941,158.071869 332.553864,162.971786 335.559937,167.036728   C337.919006,170.226700 337.585022,172.173294 335.708160,175.300491   C323.731506,195.256332 311.932556,215.320145 300.249084,235.449402   C298.182373,239.010101 296.631500,242.006760 291.572906,242.119324   C288.568634,242.186172 285.618988,244.708252 282.047363,246.523895  M1061.045776,278.553436   C1066.271851,288.005188 1071.453735,297.481903 1076.773682,306.880493   C1077.530273,308.217010 1078.919556,310.108002 1080.079956,310.154663   C1087.492798,310.452789 1094.923584,310.306580 1103.390747,310.306580   C1098.856445,302.413330 1094.932007,295.522461 1090.949219,288.665588   C1086.893066,281.682739 1082.779541,274.733429 1078.677002,267.745422   C1081.775024,266.160217 1084.407104,265.103485 1086.727539,263.574097   C1095.085327,258.065582 1099.015259,249.767090 1100.618774,240.251663   C1104.726196,215.880386 1092.606934,196.376343 1065.209106,196.496185   C1050.381592,196.561050 1035.554810,196.793289 1020.727783,196.944794   C1018.977844,196.962677 1017.227600,196.947220 1015.332336,196.947220   C1015.215576,198.681686 1015.093994,199.654739 1015.092957,200.627930   C1015.074951,217.126663 1015.083435,233.625412 1015.062805,250.124146   C1015.039429,268.789429 1014.934753,287.455109 1015.074341,306.119080   C1015.084717,307.516846 1016.702454,310.048950 1017.686890,310.106506   C1023.954773,310.473236 1030.254639,310.293121 1037.221680,310.293121   C1037.221680,296.894531 1037.221680,283.993866 1037.221680,270.426910   C1041.339233,270.426910 1044.864136,270.881836 1048.223633,270.330109   C1054.774414,269.254242 1058.622559,271.920654 1061.045776,278.553436  M710.323242,301.059784   C703.959106,290.042206 697.594910,279.024597 690.950378,267.521606   C705.114258,262.264618 711.280701,251.316910 712.606750,237.551010   C714.510071,217.791565 705.602783,198.262924 681.661133,196.992462   C664.911438,196.103622 648.073608,196.871872 631.275146,196.917358   C629.995422,196.920822 628.716125,197.062668 627.133240,197.158554   C627.046753,199.081726 626.914124,200.707443 626.909729,202.333481   C626.870850,216.823212 626.840576,231.313019 626.835144,245.802795   C626.827576,265.788818 626.793457,285.775238 626.947083,305.760132   C626.959167,307.331879 628.272034,310.201477 629.111328,310.251099   C635.526917,310.630341 641.975037,310.459137 648.977173,310.459137   C648.977173,296.743713 648.977173,283.815918 648.977173,270.167023   C654.493835,270.167023 659.461426,270.410950 664.389771,270.076233   C667.378479,269.873230 668.879456,270.898193 670.254150,273.436279   C676.186340,284.389313 682.272583,295.260254 688.434204,306.086273   C689.349792,307.695068 690.906006,310.036530 692.269897,310.110107   C699.646118,310.508026 707.055054,310.298737 715.463440,310.298737   C713.528015,306.796936 712.115784,304.241669 710.323242,301.059784  M1223.119507,215.473267   C1230.073853,226.797516 1237.125000,238.064896 1243.854858,249.521072   C1244.655518,250.884308 1244.374512,253.711838 1243.459961,255.127502   C1232.639893,271.878937 1221.596436,288.485901 1210.638794,305.148651   C1209.783447,306.449097 1209.130859,307.882812 1207.803101,310.321625   C1215.524170,310.321625 1222.123169,310.611084 1228.671143,310.160583   C1230.886108,310.008240 1233.694458,308.504120 1234.982910,306.717346   C1238.960693,301.201660 1242.332153,295.249054 1245.946899,289.471100   C1250.229248,282.626038 1254.519653,275.786102 1259.265625,268.211426   C1260.648926,270.177399 1261.628296,271.426605 1262.456665,272.768982   C1268.649536,282.804321 1275.193237,292.650543 1280.831543,302.989838   C1283.850342,308.525574 1287.281494,311.037506 1293.655396,310.369965   C1299.108276,309.798920 1304.668457,310.251770 1311.120972,310.251770   C1309.547241,307.578278 1308.674683,306.016785 1307.728760,304.501099   C1297.611572,288.291779 1287.530762,272.059235 1277.307251,255.917175   C1275.703735,253.385132 1275.344604,251.644608 1277.262695,248.900482   C1283.068481,240.594589 1288.452271,231.992157 1293.947266,223.470932   C1299.487305,214.879684 1304.963501,206.247421 1310.901489,196.954254   C1301.937622,196.954254 1293.845947,196.872192 1285.760742,197.061279   C1284.783569,197.084137 1283.553223,198.394318 1282.926514,199.408340   C1277.073975,208.876587 1271.336914,218.416183 1265.544434,227.921692   C1264.105591,230.283005 1262.587158,232.595901 1260.749512,235.491867   C1259.477539,233.490097 1258.579468,232.152054 1257.756470,230.769226   C1251.641113,220.493805 1245.569580,210.192093 1239.396240,199.951752   C1238.683838,198.770309 1237.455811,197.074738 1236.422852,197.042786   C1228.541626,196.798874 1220.649292,196.909088 1212.068848,196.909088   C1215.984131,203.452911 1219.385742,209.138367 1223.119507,215.473267  M834.147888,262.336182   C828.793152,278.064301 823.438416,293.792450 817.781494,310.407990   C824.921143,310.407990 830.570312,310.181183 836.189331,310.494598   C839.469482,310.677521 841.052734,309.493042 841.957825,306.498840   C843.881531,300.135223 845.793030,293.753082 848.152954,287.547180   C848.707275,286.089600 850.999146,284.392426 852.532715,284.351593   C863.684875,284.054932 874.848572,284.225922 886.006287,284.079071   C888.931091,284.040558 890.485535,284.798553 891.310852,287.895874   C893.019165,294.306854 895.161621,300.607697 897.304016,306.893005   C897.728821,308.139130 898.920105,310.032379 899.815918,310.065643   C906.878845,310.328125 913.955872,310.211456 922.124084,310.211456   C908.875732,271.631378 896.029053,234.221100 883.294983,197.138794   C873.826111,197.138794 865.052673,197.138794 856.291199,197.138794   C848.898254,218.826218 841.613586,240.195877 834.147888,262.336182  M558.206421,278.488678   C558.206421,273.544983 558.206421,268.601288 558.206421,263.047668   C573.632080,263.047668 588.356750,263.047668 603.519531,263.047668   C603.519531,257.474579 603.304565,252.504196 603.589172,247.562607   C603.808167,243.760971 602.443665,242.772507 598.732422,242.858658   C586.910583,243.133011 575.078247,242.924881 563.253723,243.124817   C559.694946,243.184982 558.074768,242.265579 558.245178,238.382599   C558.493164,232.731277 558.402466,227.052948 558.173584,221.397568   C558.043030,218.172791 559.069946,216.981598 562.403687,217.068344   C570.228027,217.271942 578.061157,217.139587 585.890686,217.141129   C593.347839,217.142609 600.804993,217.141449 608.135681,217.141449   C608.135681,210.167831 608.135681,203.758240 608.135681,197.148727   C584.118958,197.148727 560.534363,197.148727 536.854309,197.148727   C536.652710,198.010208 536.375854,198.642090 536.375244,199.274231   C536.339478,235.090103 536.355164,270.906036 536.264526,306.721741   C536.256165,310.031006 537.760193,310.399414 540.571594,310.385254   C562.227112,310.276001 583.883362,310.326935 605.539429,310.302429   C606.956726,310.300842 608.373779,310.086456 609.816284,309.968964   C609.816284,303.249969 609.816284,297.004883 609.816284,290.443756   C607.703613,290.347107 605.897095,290.193939 604.090515,290.193329   C592.429504,290.189423 580.768494,290.234009 569.107483,290.232941   C558.295776,290.231964 558.295776,290.215637 558.206421,278.488678  M434.678772,236.127518   C442.691193,259.684753 450.727570,283.233917 458.684418,306.809937   C459.632385,309.618713 461.190491,310.606873 464.189758,310.445129   C469.337036,310.167572 474.556793,309.928864 479.658203,310.483154   C484.476624,311.006683 486.329498,308.998993 487.766602,304.774628   C497.816895,275.232666 508.086578,245.765427 518.255920,216.263885   C520.429932,209.957092 522.480652,203.607834 524.757751,196.768936   C517.340637,196.768936 510.859985,196.635849 504.394806,196.892792   C503.243774,196.938538 501.512726,198.393616 501.136261,199.551331   C494.412476,220.227875 487.816833,240.946503 481.285095,261.684906   C478.877472,269.329193 476.705627,277.047760 474.083710,285.887115   C472.953827,283.850220 472.278717,282.980927 471.956726,281.996155   C469.894135,275.687561 467.938995,269.343933 465.893036,263.029816   C459.136871,242.179138 452.383698,221.327347 445.526733,200.509811   C445.068542,199.118729 443.800079,196.976364 442.832184,196.934189   C435.784912,196.627090 428.718048,196.768967 421.044373,196.768967   C425.699982,210.370743 429.991638,222.909119 434.678772,236.127518  M739.994812,296.485870   C744.439514,299.357544 748.657776,302.693604 753.379883,304.996521   C761.283508,308.851074 769.933411,309.747650 778.657959,309.758789   C787.920105,309.770599 797.182251,309.761444 806.583740,309.761444   C806.583740,302.868347 806.583740,296.103363 806.583740,288.694153   C804.492981,288.694153 802.710083,288.689484 800.927124,288.694977   C792.264099,288.721619 783.599915,288.856262 774.938416,288.754059   C762.736755,288.610077 752.692993,281.962372 750.958435,270.364410   C749.333069,259.496765 749.179871,248.047272 750.693909,237.176239   C752.130798,226.858719 759.075562,219.198746 770.377869,218.286346   C781.291199,217.405334 792.289856,217.586609 803.250366,217.279724   C805.151184,217.226501 807.048950,217.066437 808.554810,216.978638   C808.554810,209.546814 808.554810,202.815857 808.554810,197.306717   C793.910767,197.306717 779.735718,196.359879 765.741394,197.545868   C748.162476,199.035645 735.650330,208.692123 730.200623,225.853287   C725.790955,239.739014 726.184448,254.117630 727.831238,268.432922   C729.014771,278.721527 732.454712,288.135803 739.994812,296.485870  M1140.809570,260.953064   C1141.529663,263.425476 1142.836304,265.889648 1142.871338,268.371704   C1143.049194,281.024597 1142.886719,293.682129 1142.880371,306.338013   C1142.879639,307.592316 1143.130615,308.846741 1143.264526,310.097900   C1150.979858,310.097900 1158.255615,310.097900 1166.185303,310.097900   C1166.185303,307.901947 1166.183960,305.942871 1166.185669,303.983795   C1166.196045,291.993896 1166.168213,280.003662 1166.261230,268.014404   C1166.274902,266.254913 1166.429199,264.255890 1167.256470,262.781616   C1173.518066,251.621750 1179.978271,240.573471 1186.348022,229.473969   C1192.430542,218.875137 1198.478516,208.256500 1204.939941,196.949539   C1196.457397,196.949539 1188.696289,196.842941 1180.945435,197.078094   C1179.922363,197.109131 1178.643066,198.714890 1178.006226,199.878098   C1172.423096,210.078415 1166.980591,220.355606 1161.448120,230.583893   C1159.300415,234.554535 1157.028809,238.458282 1154.441040,243.054382   C1153.167603,240.943329 1152.362549,239.711700 1151.657837,238.425064   C1144.637451,225.605759 1137.658081,212.763794 1130.584595,199.973907   C1129.920654,198.773331 1128.719849,197.021393 1127.720947,196.989059   C1120.018433,196.739853 1112.304199,196.851852 1103.581177,196.851852   C1116.271851,218.749939 1128.319946,239.539185 1140.809570,260.953064  M976.499451,196.913040   C955.738953,196.913040 934.978516,196.913040 914.021118,196.913040   C914.021118,203.973770 914.021118,210.387482 914.021118,217.233978   C924.386719,217.233978 934.473694,217.233978 945.162964,217.233978   C945.162964,248.354156 945.162964,279.045776 945.162964,310.202087   C951.070129,310.202087 956.386841,309.928680 961.660706,310.286926   C966.034668,310.584015 967.321594,309.189056 967.301514,304.737518   C967.178955,277.590088 967.365295,250.441284 967.447205,223.292938   C967.453064,221.363007 967.447998,219.433044 967.447998,217.047272   C978.878235,217.047272 989.460571,217.047272 999.908447,217.047272   C999.908447,210.040314 999.908447,203.504120 999.908447,196.912537   C992.138794,196.912537 984.818970,196.912537 976.499451,196.913040  z"/>
<path fill="#090909" opacity="1.000000" stroke="none" d=" M282.346069,246.325165   C285.618988,244.708252 288.568634,242.186172 291.572906,242.119324   C296.631500,242.006760 298.182373,239.010101 300.249084,235.449402   C311.932556,215.320145 323.731506,195.256332 335.708160,175.300491   C337.585022,172.173294 337.919006,170.226700 335.559937,167.036728   C332.553864,162.971786 330.676941,158.071869 327.921692,152.779755   C311.330505,152.779755 293.855804,152.627670 276.391052,152.974655   C274.238678,153.017441 271.473389,155.274323 270.127686,157.270645   C263.437836,167.194763 257.019562,177.309784 250.847733,187.563461   C250.207870,188.626541 251.312347,191.553223 252.486267,192.760971   C259.563995,200.042679 260.970032,208.764465 257.793335,217.737534   C252.983093,231.324600 237.600388,235.475372 225.082489,227.242783   C215.868759,221.183212 211.225998,209.214523 214.403992,198.776489   C217.087448,189.962738 223.345886,185.152603 232.381866,183.523651   C234.141724,183.206390 236.186874,181.790939 237.170090,180.277603   C243.965088,169.818817 250.410645,159.133423 257.175476,148.654480   C262.140472,140.963531 269.393066,137.179443 278.585144,137.172409   C293.917542,137.160675 309.252563,136.972855 324.580536,137.222946   C328.486115,137.286652 330.509033,136.099442 332.218109,132.643250   C342.009460,112.842491 362.992340,111.244606 375.373871,117.162292   C387.801483,123.102005 394.799500,137.108627 392.782318,152.199295   C390.872406,166.487488 380.686096,177.518173 367.099030,179.840836   C364.990753,180.201263 362.521484,180.664551 360.676483,179.930603   C355.386871,177.826340 353.556793,180.846283 351.282990,184.736923   C339.370880,205.119553 327.283722,225.401352 315.059265,245.598251   C313.452209,248.253357 313.160400,250.047180 314.873260,252.733688   C319.384674,259.809570 320.045776,267.374542 316.534515,275.118134   C313.557495,281.683624 308.559113,285.850861 301.297516,286.410583   C296.947479,286.745880 294.484161,288.671356 292.472290,292.413177   C279.803131,315.975952 266.792053,339.355652 254.217392,362.968140   C246.352524,377.736664 233.746780,384.164185 219.418427,379.927124   C211.924850,377.711182 207.099228,372.486969 203.197662,365.987823   C177.700806,323.515625 152.114609,281.097076 126.576096,238.649872   C103.698242,200.624939 80.843033,162.586395 57.985611,124.549164   C57.391121,123.559860 56.887066,122.516212 55.971539,120.809448   C57.971912,120.646698 59.527412,120.415489 61.083782,120.409470   C79.749123,120.337242 98.421318,120.583969 117.077507,120.144142   C128.329483,119.878868 136.145187,124.711067 141.841187,133.925995   C150.935181,148.638168 160.075607,163.321594 169.165863,178.036057   C189.528503,210.997131 209.800049,244.014954 230.321426,276.876831   C232.709000,280.700195 232.742142,283.491608 230.393250,287.192261   C226.667068,293.062897 223.466461,299.267090 219.486557,306.316650   C216.807159,302.116272 214.586288,298.744049 212.473160,295.305603   C183.317673,247.864426 154.162430,200.423080 125.063080,152.947464   C122.949074,149.498459 120.350296,147.663239 116.136108,147.906387   C111.533783,148.171951 106.904289,147.966751 101.215294,147.966751   C105.017082,154.367538 108.346230,160.004318 111.705368,165.623184   C144.717361,220.842575 177.737625,276.057007 210.742661,331.280548   C212.958862,334.988678 214.814453,338.938599 217.283234,342.464111   C222.883286,350.461182 233.469742,350.406189 238.498520,342.066437   C251.368835,320.722229 263.938232,299.195679 276.461273,277.645203   C277.198425,276.376648 276.897491,274.094452 276.340240,272.550812   C272.755066,262.619263 274.394592,253.939392 282.346069,246.325165  M351.655823,152.600327   C355.444183,157.547195 359.342743,159.058289 364.462433,157.572723   C369.130066,156.218338 371.731018,153.065567 372.061676,148.280777   C372.401947,143.356567 370.147491,139.678268 365.879547,137.273697   C361.535370,134.826157 357.464264,135.845001 353.925476,138.830414   C349.694672,142.399582 349.466644,147.032196 351.655823,152.600327  M237.170151,196.841309   C232.009262,196.195450 228.356140,198.237305 226.679916,203.172470   C224.934967,208.310013 227.140823,213.882980 231.771225,216.531128   C236.016205,218.958832 240.101166,218.581100 243.722214,215.298569   C249.812073,209.778015 246.843430,200.377945 237.170151,196.841309  M305.396240,265.256287   C305.344421,260.629822 303.338654,256.825073 298.889221,255.805206   C296.451141,255.246384 292.883179,256.248383 290.896179,257.864197   C287.764923,260.410431 287.025513,264.317474 289.014709,268.257751   C290.835876,271.865204 293.811035,273.936859 297.811066,273.502594   C302.076874,273.039459 304.507324,270.203674 305.396240,265.256287  z"/>
<path fill="#090809" opacity="1.000000" stroke="none" d=" M1060.833984,278.243286   C1058.622559,271.920654 1054.774414,269.254242 1048.223633,270.330109   C1044.864136,270.881836 1041.339233,270.426910 1037.221680,270.426910   C1037.221680,283.993866 1037.221680,296.894531 1037.221680,310.293121   C1030.254639,310.293121 1023.954773,310.473236 1017.686890,310.106506   C1016.702454,310.048950 1015.084717,307.516846 1015.074341,306.119080   C1014.934753,287.455109 1015.039429,268.789429 1015.062805,250.124146   C1015.083435,233.625412 1015.074951,217.126663 1015.092957,200.627930   C1015.093994,199.654739 1015.215576,198.681686 1015.332336,196.947220   C1017.227600,196.947220 1018.977844,196.962677 1020.727783,196.944794   C1035.554810,196.793289 1050.381592,196.561050 1065.209106,196.496185   C1092.606934,196.376343 1104.726196,215.880386 1100.618774,240.251663   C1099.015259,249.767090 1095.085327,258.065582 1086.727539,263.574097   C1084.407104,265.103485 1081.775024,266.160217 1078.677002,267.745422   C1082.779541,274.733429 1086.893066,281.682739 1090.949219,288.665588   C1094.932007,295.522461 1098.856445,302.413330 1103.390747,310.306580   C1094.923584,310.306580 1087.492798,310.452789 1080.079956,310.154663   C1078.919556,310.108002 1077.530273,308.217010 1076.773682,306.880493   C1071.453735,297.481903 1066.271851,288.005188 1060.833984,278.243286  M1043.634888,217.080872   C1041.865601,217.080872 1040.096191,217.080872 1038.171875,217.080872   C1038.004883,218.643768 1037.815918,219.603561 1037.813354,220.563858   C1037.789185,229.706436 1037.688232,238.852173 1037.947876,247.987366   C1037.976562,248.995453 1040.085938,250.734375 1041.288574,250.786270   C1047.426758,251.051178 1053.584351,250.905487 1059.734497,250.843475   C1073.699829,250.702682 1079.625122,244.145248 1078.506226,230.121109   C1077.847046,221.858963 1073.385620,217.448441 1065.048340,217.202988   C1058.238281,217.002487 1051.419067,217.113815 1043.634888,217.080872  z"/>
<path fill="#080808" opacity="1.000000" stroke="none" d=" M710.513367,301.373108   C712.115784,304.241669 713.528015,306.796936 715.463440,310.298737   C707.055054,310.298737 699.646118,310.508026 692.269897,310.110107   C690.906006,310.036530 689.349792,307.695068 688.434204,306.086273   C682.272583,295.260254 676.186340,284.389313 670.254150,273.436279   C668.879456,270.898193 667.378479,269.873230 664.389771,270.076233   C659.461426,270.410950 654.493835,270.167023 648.977173,270.167023   C648.977173,283.815918 648.977173,296.743713 648.977173,310.459137   C641.975037,310.459137 635.526917,310.630341 629.111328,310.251099   C628.272034,310.201477 626.959167,307.331879 626.947083,305.760132   C626.793457,285.775238 626.827576,265.788818 626.835144,245.802795   C626.840576,231.313019 626.870850,216.823212 626.909729,202.333481   C626.914124,200.707443 627.046753,199.081726 627.133240,197.158554   C628.716125,197.062668 629.995422,196.920822 631.275146,196.917358   C648.073608,196.871872 664.911438,196.103622 681.661133,196.992462   C705.602783,198.262924 714.510071,217.791565 712.606750,237.551010   C711.280701,251.316910 705.114258,262.264618 690.950378,267.521606   C697.594910,279.024597 703.959106,290.042206 710.513367,301.373108  M649.408691,218.018478   C649.408691,228.898270 649.408691,239.778046 649.408691,250.919540   C657.473633,250.919540 664.617615,250.981430 671.760071,250.906479   C686.027771,250.756760 691.935608,244.015839 690.436768,229.708450   C689.652893,222.226715 685.377197,217.573608 677.981384,217.314819   C668.684448,216.989532 659.364685,217.317413 649.408691,218.018478  z"/>
<path fill="#090909" opacity="1.000000" stroke="none" d=" M1222.953491,215.148544   C1219.385742,209.138367 1215.984131,203.452911 1212.068848,196.909088   C1220.649292,196.909088 1228.541626,196.798874 1236.422852,197.042786   C1237.455811,197.074738 1238.683838,198.770309 1239.396240,199.951752   C1245.569580,210.192093 1251.641113,220.493805 1257.756470,230.769226   C1258.579468,232.152054 1259.477539,233.490097 1260.749512,235.491867   C1262.587158,232.595901 1264.105591,230.283005 1265.544434,227.921692   C1271.336914,218.416183 1277.073975,208.876587 1282.926514,199.408340   C1283.553223,198.394318 1284.783569,197.084137 1285.760742,197.061279   C1293.845947,196.872192 1301.937622,196.954254 1310.901489,196.954254   C1304.963501,206.247421 1299.487305,214.879684 1293.947266,223.470932   C1288.452271,231.992157 1283.068481,240.594589 1277.262695,248.900482   C1275.344604,251.644608 1275.703735,253.385132 1277.307251,255.917175   C1287.530762,272.059235 1297.611572,288.291779 1307.728760,304.501099   C1308.674683,306.016785 1309.547241,307.578278 1311.120972,310.251770   C1304.668457,310.251770 1299.108276,309.798920 1293.655396,310.369965   C1287.281494,311.037506 1283.850342,308.525574 1280.831543,302.989838   C1275.193237,292.650543 1268.649536,282.804321 1262.456665,272.768982   C1261.628296,271.426605 1260.648926,270.177399 1259.265625,268.211426   C1254.519653,275.786102 1250.229248,282.626038 1245.946899,289.471100   C1242.332153,295.249054 1238.960693,301.201660 1234.982910,306.717346   C1233.694458,308.504120 1230.886108,310.008240 1228.671143,310.160583   C1222.123169,310.611084 1215.524170,310.321625 1207.803101,310.321625   C1209.130859,307.882812 1209.783447,306.449097 1210.638794,305.148651   C1221.596436,288.485901 1232.639893,271.878937 1243.459961,255.127502   C1244.374512,253.711838 1244.655518,250.884308 1243.854858,249.521072   C1237.125000,238.064896 1230.073853,226.797516 1222.953491,215.148544  z"/>
<path fill="#090809" opacity="1.000000" stroke="none" d=" M834.238403,261.950867   C841.613586,240.195877 848.898254,218.826218 856.291199,197.138794   C865.052673,197.138794 873.826111,197.138794 883.294983,197.138794   C896.029053,234.221100 908.875732,271.631378 922.124084,310.211456   C913.955872,310.211456 906.878845,310.328125 899.815918,310.065643   C898.920105,310.032379 897.728821,308.139130 897.304016,306.893005   C895.161621,300.607697 893.019165,294.306854 891.310852,287.895874   C890.485535,284.798553 888.931091,284.040558 886.006287,284.079071   C874.848572,284.225922 863.684875,284.054932 852.532715,284.351593   C850.999146,284.392426 848.707275,286.089600 848.152954,287.547180   C845.793030,293.753082 843.881531,300.135223 841.957825,306.498840   C841.052734,309.493042 839.469482,310.677521 836.189331,310.494598   C830.570312,310.181183 824.921143,310.407990 817.781494,310.407990   C823.438416,293.792450 828.793152,278.064301 834.238403,261.950867  M864.794312,234.095047   C861.595032,243.967880 858.395752,253.840729 855.021179,264.254578   C865.094849,264.254578 874.259460,264.254578 884.278809,264.254578   C879.315002,249.150604 874.547302,234.643494 869.779602,220.136383   C869.421204,220.258514 869.062866,220.380630 868.704468,220.502762   C867.449402,224.770737 866.194336,229.038696 864.794312,234.095047  z"/>
<path fill="#090909" opacity="1.000000" stroke="none" d=" M558.207458,278.985168   C558.295776,290.215637 558.295776,290.231964 569.107483,290.232941   C580.768494,290.234009 592.429504,290.189423 604.090515,290.193329   C605.897095,290.193939 607.703613,290.347107 609.816284,290.443756   C609.816284,297.004883 609.816284,303.249969 609.816284,309.968964   C608.373779,310.086456 606.956726,310.300842 605.539429,310.302429   C583.883362,310.326935 562.227112,310.276001 540.571594,310.385254   C537.760193,310.399414 536.256165,310.031006 536.264526,306.721741   C536.355164,270.906036 536.339478,235.090103 536.375244,199.274231   C536.375854,198.642090 536.652710,198.010208 536.854309,197.148727   C560.534363,197.148727 584.118958,197.148727 608.135681,197.148727   C608.135681,203.758240 608.135681,210.167831 608.135681,217.141449   C600.804993,217.141449 593.347839,217.142609 585.890686,217.141129   C578.061157,217.139587 570.228027,217.271942 562.403687,217.068344   C559.069946,216.981598 558.043030,218.172791 558.173584,221.397568   C558.402466,227.052948 558.493164,232.731277 558.245178,238.382599   C558.074768,242.265579 559.694946,243.184982 563.253723,243.124817   C575.078247,242.924881 586.910583,243.133011 598.732422,242.858658   C602.443665,242.772507 603.808167,243.760971 603.589172,247.562607   C603.304565,252.504196 603.519531,257.474579 603.519531,263.047668   C588.356750,263.047668 573.632080,263.047668 558.206421,263.047668   C558.206421,268.601288 558.206421,273.544983 558.207458,278.985168  z"/>
<path fill="#0A0909" opacity="1.000000" stroke="none" d=" M434.481018,235.787506   C429.991638,222.909119 425.699982,210.370743 421.044373,196.768967   C428.718048,196.768967 435.784912,196.627090 442.832184,196.934189   C443.800079,196.976364 445.068542,199.118729 445.526733,200.509811   C452.383698,221.327347 459.136871,242.179138 465.893036,263.029816   C467.938995,269.343933 469.894135,275.687561 471.956726,281.996155   C472.278717,282.980927 472.953827,283.850220 474.083710,285.887115   C476.705627,277.047760 478.877472,269.329193 481.285095,261.684906   C487.816833,240.946503 494.412476,220.227875 501.136261,199.551331   C501.512726,198.393616 503.243774,196.938538 504.394806,196.892792   C510.859985,196.635849 517.340637,196.768936 524.757751,196.768936   C522.480652,203.607834 520.429932,209.957092 518.255920,216.263885   C508.086578,245.765427 497.816895,275.232666 487.766602,304.774628   C486.329498,308.998993 484.476624,311.006683 479.658203,310.483154   C474.556793,309.928864 469.337036,310.167572 464.189758,310.445129   C461.190491,310.606873 459.632385,309.618713 458.684418,306.809937   C450.727570,283.233917 442.691193,259.684753 434.481018,235.787506  z"/>
<path fill="#090909" opacity="1.000000" stroke="none" d=" M739.746216,296.234436   C732.454712,288.135803 729.014771,278.721527 727.831238,268.432922   C726.184448,254.117630 725.790955,239.739014 730.200623,225.853287   C735.650330,208.692123 748.162476,199.035645 765.741394,197.545868   C779.735718,196.359879 793.910767,197.306717 808.554810,197.306717   C808.554810,202.815857 808.554810,209.546814 808.554810,216.978638   C807.048950,217.066437 805.151184,217.226501 803.250366,217.279724   C792.289856,217.586609 781.291199,217.405334 770.377869,218.286346   C759.075562,219.198746 752.130798,226.858719 750.693909,237.176239   C749.179871,248.047272 749.333069,259.496765 750.958435,270.364410   C752.692993,281.962372 762.736755,288.610077 774.938416,288.754059   C783.599915,288.856262 792.264099,288.721619 800.927124,288.694977   C802.710083,288.689484 804.492981,288.694153 806.583740,288.694153   C806.583740,296.103363 806.583740,302.868347 806.583740,309.761444   C797.182251,309.761444 787.920105,309.770599 778.657959,309.758789   C769.933411,309.747650 761.283508,308.851074 753.379883,304.996521   C748.657776,302.693604 744.439514,299.357544 739.746216,296.234436  z"/>
<path fill="#090909" opacity="1.000000" stroke="none" d=" M1140.588745,260.640747   C1128.319946,239.539185 1116.271851,218.749939 1103.581177,196.851852   C1112.304199,196.851852 1120.018433,196.739853 1127.720947,196.989059   C1128.719849,197.021393 1129.920654,198.773331 1130.584595,199.973907   C1137.658081,212.763794 1144.637451,225.605759 1151.657837,238.425064   C1152.362549,239.711700 1153.167603,240.943329 1154.441040,243.054382   C1157.028809,238.458282 1159.300415,234.554535 1161.448120,230.583893   C1166.980591,220.355606 1172.423096,210.078415 1178.006226,199.878098   C1178.643066,198.714890 1179.922363,197.109131 1180.945435,197.078094   C1188.696289,196.842941 1196.457397,196.949539 1204.939941,196.949539   C1198.478516,208.256500 1192.430542,218.875137 1186.348022,229.473969   C1179.978271,240.573471 1173.518066,251.621750 1167.256470,262.781616   C1166.429199,264.255890 1166.274902,266.254913 1166.261230,268.014404   C1166.168213,280.003662 1166.196045,291.993896 1166.185669,303.983795   C1166.183960,305.942871 1166.185303,307.901947 1166.185303,310.097900   C1158.255615,310.097900 1150.979858,310.097900 1143.264526,310.097900   C1143.130615,308.846741 1142.879639,307.592316 1142.880371,306.338013   C1142.886719,293.682129 1143.049194,281.024597 1142.871338,268.371704   C1142.836304,265.889648 1141.529663,263.425476 1140.588745,260.640747  z"/>
<path fill="#090808" opacity="1.000000" stroke="none" d=" M976.999268,196.912781   C984.818970,196.912537 992.138794,196.912537 999.908447,196.912537   C999.908447,203.504120 999.908447,210.040314 999.908447,217.047272   C989.460571,217.047272 978.878235,217.047272 967.447998,217.047272   C967.447998,219.433044 967.453064,221.363007 967.447205,223.292938   C967.365295,250.441284 967.178955,277.590088 967.301514,304.737518   C967.321594,309.189056 966.034668,310.584015 961.660706,310.286926   C956.386841,309.928680 951.070129,310.202087 945.162964,310.202087   C945.162964,279.045776 945.162964,248.354156 945.162964,217.233978   C934.473694,217.233978 924.386719,217.233978 914.021118,217.233978   C914.021118,210.387482 914.021118,203.973770 914.021118,196.913040   C934.978516,196.913040 955.738953,196.913040 976.999268,196.912781  z"/>
<path fill="#F0F0F0" opacity="1.000000" stroke="none" d=" M351.446350,152.278336   C349.466644,147.032196 349.694672,142.399582 353.925476,138.830414   C357.464264,135.845001 361.535370,134.826157 365.879547,137.273697   C370.147491,139.678268 372.401947,143.356567 372.061676,148.280777   C371.731018,153.065567 369.130066,156.218338 364.462433,157.572723   C359.342743,159.058289 355.444183,157.547195 351.446350,152.278336  z"/>
<path fill="#EFEEED" opacity="1.000000" stroke="none" d=" M237.581482,196.899109   C246.843430,200.377945 249.812073,209.778015 243.722214,215.298569   C240.101166,218.581100 236.016205,218.958832 231.771225,216.531128   C227.140823,213.882980 224.934967,208.310013 226.679916,203.172470   C228.356140,198.237305 232.009262,196.195450 237.581482,196.899109  z"/>
<path fill="#EBECE9" opacity="1.000000" stroke="none" d=" M305.331970,265.619354   C304.507324,270.203674 302.076874,273.039459 297.811066,273.502594   C293.811035,273.936859 290.835876,271.865204 289.014709,268.257751   C287.025513,264.317474 287.764923,260.410431 290.896179,257.864197   C292.883179,256.248383 296.451141,255.246384 298.889221,255.805206   C303.338654,256.825073 305.344421,260.629822 305.331970,265.619354  z"/>
<path fill="#F5F5F5" opacity="1.000000" stroke="none" d=" M1044.119385,217.083893   C1051.419067,217.113815 1058.238281,217.002487 1065.048340,217.202988   C1073.385620,217.448441 1077.847046,221.858963 1078.506226,230.121109   C1079.625122,244.145248 1073.699829,250.702682 1059.734497,250.843475   C1053.584351,250.905487 1047.426758,251.051178 1041.288574,250.786270   C1040.085938,250.734375 1037.976562,248.995453 1037.947876,247.987366   C1037.688232,238.852173 1037.789185,229.706436 1037.813354,220.563858   C1037.815918,219.603561 1038.004883,218.643768 1038.171875,217.080872   C1040.096191,217.080872 1041.865601,217.080872 1044.119385,217.083893  z"/>
<path fill="#F4F4F4" opacity="1.000000" stroke="none" d=" M649.731689,217.690948   C659.364685,217.317413 668.684448,216.989532 677.981384,217.314819   C685.377197,217.573608 689.652893,222.226715 690.436768,229.708450   C691.935608,244.015839 686.027771,250.756760 671.760071,250.906479   C664.617615,250.981430 657.473633,250.919540 649.408691,250.919540   C649.408691,239.778046 649.408691,228.898270 649.731689,217.690948  z"/>
<path fill="#EBECEC" opacity="1.000000" stroke="none" d=" M864.866821,233.700867   C866.194336,229.038696 867.449402,224.770737 868.704468,220.502762   C869.062866,220.380630 869.421204,220.258514 869.779602,220.136383   C874.547302,234.643494 879.315002,249.150604 884.278809,264.254578   C874.259460,264.254578 865.094849,264.254578 855.021179,264.254578   C858.395752,253.840729 861.595032,243.967880 864.866821,233.700867  z"/>
</svg>
