<svg version="1.1" id="Layer_1" xmlns="http://www.w3.org/2000/svg" xmlns:xlink="http://www.w3.org/1999/xlink" x="0px" y="0px"
	 width="100%" viewBox="0 0 608 608" enable-background="new 0 0 608 608" xml:space="preserve">
<path fill="#000000" opacity="1.000000" stroke="none" 
	d="
M309.959717,408.102600 
	C314.781189,416.317383 319.396149,424.231018 324.036987,432.129486 
	C325.555695,434.714233 327.001984,437.357544 328.720337,439.806458 
	C337.693085,452.594299 352.405304,452.332581 360.603638,439.046570 
	C368.738586,425.863251 376.566040,412.488586 384.427612,399.138550 
	C394.571259,381.913147 404.486664,364.551880 414.783020,347.418976 
	C417.700043,342.565063 418.125488,338.076965 416.446075,332.753937 
	C412.368256,319.828674 414.700134,308.064362 424.030762,297.998840 
	C428.583618,293.087433 434.360657,289.908081 440.884125,288.986450 
	C446.104095,288.249023 449.353577,285.716949 451.858582,281.438019 
	C464.819702,259.298523 477.817322,237.180313 490.835114,215.074081 
	C495.906372,206.462219 500.949036,197.829727 506.226410,189.344513 
	C509.223022,184.526428 509.357117,180.242966 505.895721,175.532608 
	C502.443604,170.834869 499.890167,165.538086 497.643066,160.148788 
	C496.190155,156.664185 493.988495,155.221664 490.018219,155.254562 
	C467.356445,155.442368 444.691803,155.445847 422.029510,155.301010 
	C416.079102,155.263000 411.771393,157.703766 408.550873,162.398087 
	C398.840546,176.552292 389.765869,191.113831 380.808624,205.752441 
	C379.404083,208.047867 379.252167,210.106400 380.707001,212.231995 
	C382.207794,214.424728 383.829926,216.539444 385.479950,218.624191 
	C399.968445,236.929855 391.279053,266.385773 369.505157,272.731689 
	C351.645599,277.936829 331.628723,266.789185 324.760406,247.545090 
	C318.453796,229.874817 324.678040,206.596085 348.740509,201.241058 
	C353.801086,200.114822 357.265900,197.547012 360.007874,193.079605 
	C368.982544,178.457535 378.366608,164.087555 387.465363,149.540649 
	C395.504974,136.687057 407.107788,130.636368 422.137787,130.670776 
	C444.634308,130.722290 467.131897,130.588013 489.627136,130.769165 
	C495.304657,130.814896 499.011017,128.703995 501.668030,123.711662 
	C509.951111,108.148285 522.483948,98.607986 540.388123,96.464523 
	C562.674500,93.796448 582.718445,105.680542 590.635803,126.641220 
	C599.716614,150.682022 591.674255,177.162811 570.827087,189.864182 
	C562.267395,195.079330 552.968567,198.656754 542.391479,195.603333 
	C537.230164,194.113388 534.440430,197.845932 532.139832,201.729065 
	C523.394470,216.490234 514.712280,231.288910 505.942047,246.035263 
	C496.575134,261.784943 487.274353,277.577087 477.646606,293.166595 
	C474.586212,298.122101 474.321289,302.197906 477.333954,307.396362 
	C485.194824,320.960754 483.417480,334.215057 474.429352,346.668213 
	C470.443024,352.191284 464.871979,355.662140 458.110229,356.247620 
	C449.514832,356.991882 444.517944,361.522430 440.555542,368.952881 
	C422.058777,403.638947 403.214691,438.140320 384.389099,472.650116 
	C377.446167,485.377472 368.043243,495.597717 353.194427,498.654297 
	C337.923584,501.797729 324.443542,498.042603 313.871094,486.075165 
	C307.091675,478.401245 302.562592,469.209534 297.326080,460.521240 
	C250.029633,382.048187 202.815277,303.525635 155.592468,225.008209 
	C133.441605,188.177948 111.315231,151.332947 89.215698,114.471863 
	C87.803207,112.115891 86.043953,109.823608 85.973885,106.897476 
	C88.209641,105.079674 90.632019,105.689285 92.870529,105.683922 
	C115.367073,105.629967 137.863907,105.605507 160.360367,105.671799 
	C167.673508,105.693344 174.911163,104.709793 182.301590,105.267509 
	C197.303238,106.399620 207.797226,113.948112 215.456833,126.299179 
	C230.032562,149.802505 244.616257,173.300919 259.175262,196.814621 
	C288.556000,244.266403 317.831848,291.783661 347.390808,339.124146 
	C351.909882,346.361755 352.443848,352.669891 347.714203,359.909851 
	C343.259521,366.729004 339.603424,374.067535 335.527466,381.138031 
	C334.563324,382.810486 334.022400,384.873352 331.895905,385.820679 
	C329.567291,384.784637 328.830902,382.418091 327.661469,380.520691 
	C292.872589,324.076385 258.126709,267.605560 223.385376,211.131958 
	C212.299789,193.111801 201.145813,175.132431 190.232330,157.008423 
	C186.406601,150.655060 181.522293,147.420685 173.848068,148.128510 
	C168.099411,148.658737 162.262589,148.233185 154.651413,148.233185 
	C206.850525,235.582550 258.306915,321.689026 309.959717,408.102600 
M530.782776,139.461914 
	C530.388733,140.728104 529.773010,141.971130 529.638000,143.264359 
	C528.947754,149.876968 531.195557,155.288055 536.537048,159.343353 
	C541.905090,163.418808 547.550903,163.371902 553.366333,160.443588 
	C558.958557,157.627701 561.628174,153.029953 561.654236,146.801834 
	C561.687744,138.805023 556.858704,132.678497 548.511292,130.210922 
	C542.480164,128.428055 535.623901,131.823227 530.782776,139.461914 
M349.706848,249.899139 
	C356.657837,253.921478 362.453827,253.693726 367.646118,249.194122 
	C376.347168,241.653809 373.683655,229.166840 362.091522,223.153397 
	C354.462952,219.196045 346.406952,222.298248 343.413635,230.345901 
	C340.791412,237.395828 342.618195,243.541901 349.706848,249.899139 
M446.250916,310.626160 
	C443.849609,311.352570 441.477570,312.174347 439.607758,313.929535 
	C436.380280,316.959137 434.529083,320.533905 435.790497,325.078278 
	C437.359650,330.731415 440.515289,335.140900 446.538513,336.383270 
	C451.100250,337.324219 455.094635,335.725769 457.973358,331.924622 
	C461.677490,327.033569 461.798035,321.764465 459.130920,316.433899 
	C456.648254,311.471985 452.292358,309.966888 446.250916,310.626160 
z"/>
</svg>